# xmcd CD database file
#
# Track frame offsets:
#	150
#	18383
#	44934
#	57053
#	72891
#	95257
#	117960
#	138768
#	160008
#	180157
#	202509
#
# Disc length: 3028 seconds
#
# Revision: 0
# Processed by: cddbd v1.5.2PL0 Copyright (c) Steve Scherf et al.
# Submitted via: CDex 1.51
#
DISCID=830bd20b
DTITLE=Juliet Kelly - Delicious Chemistry
DYEAR=2005
DGENRE=Jazz
TTITLE0=Secret
TTITLE1=Delicious Chemistry
TTITLE2=I Wish You Love
TTITLE3=Unicorn Dream
TTITLE4=Alone Again
TTITLE5=Behind Her Smile
TTITLE6=Parallel Universe
TTITLE7=Searching For Clues
TTITLE8=Letting You Go
TTITLE9=Guardian Angel
TTITLE10=Black Rose
EXTD=YEAR: 2005
EXTT0=
EXTT1=
EXTT2=
EXTT3=
EXTT4=
EXTT5=
EXTT6=
EXTT7=
EXTT8=
EXTT9=
EXTT10=
PLAYORDER=
